<svg width="102" height="102" viewBox="0 0 102 102" fill="none" xmlns="http://www.w3.org/2000/svg">
<path d="M76.5 74.375H25.5V44.625C25.5 30.5426 36.9176 19.125 51 19.125C65.0824 19.125 76.5 30.5426 76.5 44.625V74.375Z" fill="#2B5736" stroke="#2B5736" stroke-width="2" stroke-linejoin="round"/>
<path d="M17 89.25H85M8.5 27.625L14.875 29.75M27.625 8.5L29.75 14.875M21.25 21.25L14.875 14.875" stroke="#2B5736" stroke-width="2" stroke-linecap="round" stroke-linejoin="round"/>
<path fill-rule="evenodd" clip-rule="evenodd" d="M67.9514 35.2143C67.9845 34.8104 68.0007 34.4053 68 34V31.5714H63.75C60.5968 31.5709 57.5284 32.5933 55.0057 34.485C52.4829 36.3767 50.6419 39.0357 49.759 42.0629C48.3981 40.3074 46.6533 38.8869 44.6583 37.9102C42.6633 36.9336 40.4712 36.4267 38.25 36.4286H34V38.8571C34 42.7217 35.5352 46.428 38.2679 49.1607C41.0005 51.8934 44.7068 53.4286 48.5714 53.4286H49.1786V63.75C49.1786 64.2331 49.3705 64.6964 49.7121 65.0379C50.0536 65.3795 50.5169 65.5714 51 65.5714C51.4831 65.5714 51.9464 65.3795 52.2879 65.0379C52.6295 64.6964 52.8214 64.2331 52.8214 63.75V48.5714H53.4286C57.0833 48.572 60.6048 47.1991 63.2948 44.725C65.9848 42.2509 67.6469 38.8563 67.9514 35.2143ZM52.887 44.9286C53.1857 42.2567 54.4589 39.7886 56.463 37.9965C58.4671 36.2043 61.0615 35.2138 63.75 35.2143H64.2916C63.9928 37.8862 62.7197 40.3542 60.7156 42.1464C58.7115 43.9385 56.1171 44.9291 53.4286 44.9286H52.887ZM38.25 40.0714C40.9385 40.0709 43.5329 41.0615 45.537 42.8536C47.5411 44.6458 48.8143 47.1138 49.113 49.7857H48.5714C45.8829 49.7862 43.2885 48.7957 41.2844 47.0035C39.2803 45.2113 38.0072 42.7433 37.7084 40.0714H38.25Z" fill="white"/>
</svg>
