<svg width="40" height="40" viewBox="0 0 40 40" fill="none" xmlns="http://www.w3.org/2000/svg">
<path d="M30 29.1667H10V17.5C10 11.9775 14.4775 7.5 20 7.5C25.5225 7.5 30 11.9775 30 17.5V29.1667Z" fill="white" stroke="white" stroke-width="2" stroke-linejoin="round"/>
<path d="M6.66665 35H33.3333M3.33331 10.8333L5.83331 11.6667M10.8333 3.33334L11.6666 5.83334M8.33331 8.33334L5.83331 5.83334" stroke="white" stroke-width="2" stroke-linecap="round" stroke-linejoin="round"/>
<path fill-rule="evenodd" clip-rule="evenodd" d="M26.6476 13.8095C26.6606 13.6511 26.6669 13.4923 26.6666 13.3333V12.381H25C23.7634 12.3807 22.5602 12.7817 21.5708 13.5235C20.5815 14.2654 19.8596 15.3081 19.5133 16.4952C18.9796 15.8068 18.2954 15.2497 17.513 14.8668C16.7307 14.4838 15.871 14.285 15 14.2857H13.3333V15.2381C13.3333 16.7536 13.9354 18.2071 15.007 19.2787C16.0786 20.3503 17.5321 20.9524 19.0476 20.9524H19.2857V25C19.2857 25.1894 19.3609 25.3711 19.4949 25.5051C19.6289 25.639 19.8105 25.7143 20 25.7143C20.1894 25.7143 20.3711 25.639 20.5051 25.5051C20.639 25.3711 20.7143 25.1894 20.7143 25V19.0476H20.9524C22.3856 19.0478 23.7666 18.5094 24.8215 17.5392C25.8764 16.569 26.5282 15.2378 26.6476 13.8095ZM20.74 17.619C20.8571 16.5712 21.3564 15.6034 22.1423 14.9006C22.9282 14.1978 23.9456 13.8093 25 13.8095H25.2124C25.0952 14.8573 24.5959 15.8252 23.81 16.528C23.0241 17.2308 22.0067 17.6192 20.9524 17.619H20.74ZM15 15.7143C16.0543 15.7141 17.0717 16.1025 17.8576 16.8053C18.6436 17.5082 19.1428 18.476 19.26 19.5238H19.0476C17.9933 19.524 16.9759 19.1356 16.1899 18.4328C15.404 17.7299 14.9047 16.7621 14.7876 15.7143H15Z" fill="white"/>
</svg>
